<svg width="97" height="100" viewBox="0 0 97 100" fill="none" xmlns="http://www.w3.org/2000/svg">
<path d="M0 0H96.242V100H0V0Z" fill="#F7DF1E"/>
<path d="M25.3058 83.567L32.6709 78.9358C34.0917 81.5534 35.3843 83.7682 38.4846 83.7682C41.4565 83.7682 43.3302 82.5602 43.3302 77.8618V45.9094H52.3745V77.9947C52.3745 87.728 46.8835 92.1583 38.8724 92.1583C31.6373 92.1583 27.4374 88.2648 25.3056 83.5662" fill="black"/>
<path d="M57.2868 82.5602L64.651 78.1299C66.5896 81.4194 69.1091 83.8358 73.5665 83.8358C77.314 83.8358 79.7037 81.889 79.7037 79.2039C79.7037 75.9818 77.2489 74.8406 73.1142 72.9617L70.8537 71.954C64.3283 69.0682 59.9997 65.4434 59.9997 57.7909C59.9997 50.7426 65.1679 45.3723 73.2437 45.3723C78.9935 45.3723 83.1281 47.4534 86.0995 52.8907L79.0576 57.5893C77.5071 54.7031 75.8279 53.5622 73.2439 53.5622C70.5951 53.5622 68.9153 55.3074 68.9153 57.5893C68.9153 60.4087 70.5951 61.5501 74.4709 63.2955L76.7318 64.3023C84.4197 67.726 88.7483 71.2161 88.7483 79.0696C88.7483 87.528 82.3526 92.1593 73.7605 92.1593C65.3621 92.1593 59.9353 87.9977 57.2869 82.5602" fill="black"/>
</svg>
