<svg width="11" height="9" viewBox="0 0 11 9" fill="none" xmlns="http://www.w3.org/2000/svg">
<path d="M2.48588 6.26045C2.56895 6.289 2.65143 6.31756 2.73627 6.34247C2.70858 6.45608 2.68501 6.56848 2.66262 6.68452C2.46938 7.73864 2.6202 8.57342 3.10272 8.86019C3.59996 9.15607 4.43596 8.85229 5.24957 8.11775C5.31379 8.05882 5.37859 7.99806 5.44281 7.93366C5.52352 8.01568 5.60836 8.09345 5.6932 8.16879C6.48089 8.86748 7.25974 9.14999 7.74107 8.86384C8.23831 8.56795 8.40033 7.66998 8.19059 6.57638C8.1741 6.49314 8.15583 6.40748 8.13521 6.31999C8.19413 6.30298 8.25127 6.28414 8.30842 6.2647C9.37065 5.90199 10.1407 5.31509 10.1407 4.7136C10.1407 4.13825 9.41543 3.58051 8.41388 3.22509V3.22448C8.31431 3.19046 8.21534 3.15826 8.11577 3.12788C8.13227 3.05801 8.14699 2.98753 8.16172 2.91706C8.38855 1.78578 8.2389 0.876268 7.73636 0.576134C7.25208 0.289366 6.46203 0.587677 5.66315 1.3052C5.58362 1.37507 5.50703 1.44919 5.43279 1.52332C5.38272 1.4741 5.33146 1.42428 5.2802 1.3769C4.44244 0.609549 3.6029 0.286936 3.10036 0.588892C2.61785 0.877483 2.4741 1.73414 2.67676 2.80405C2.69738 2.91037 2.71918 3.01487 2.74451 3.12119C2.62669 3.15522 2.51062 3.19349 2.40222 3.23359C1.41775 3.58537 0.713135 4.13946 0.713135 4.713C0.713135 5.30537 1.46371 5.89956 2.48588 6.26045ZM4.98975 7.80729C4.68634 8.09406 4.33403 8.32189 3.95109 8.47743C3.74665 8.57768 3.51099 8.5874 3.30126 8.50234C3.00845 8.32797 2.88709 7.65723 3.05264 6.75561C3.07326 6.64929 3.09506 6.54296 3.12039 6.43846C3.53279 6.5296 3.94873 6.59217 4.37056 6.62438C4.61388 6.9798 4.88017 7.31942 5.16591 7.63778C5.10758 7.69672 5.04867 7.75383 4.98975 7.80729ZM7.32808 4.24214C7.24148 4.07506 7.1531 3.90798 7.0612 3.74455C6.97106 3.58355 6.87679 3.42376 6.77958 3.2664C7.07593 3.30468 7.35989 3.35571 7.62501 3.41829C7.53958 3.69959 7.44061 3.97299 7.32808 4.24214ZM7.33161 5.1875C7.44944 5.46272 7.55255 5.7422 7.64268 6.02897C7.35695 6.09519 7.06827 6.14683 6.77723 6.18086C6.87679 6.02107 6.97047 5.85824 7.06296 5.69481C7.15664 5.52713 7.24501 5.35822 7.33161 5.1875ZM7.11893 4.71543C6.9958 4.97728 6.86265 5.2355 6.72126 5.49007C6.58163 5.7422 6.43199 5.98766 6.27586 6.23068C6.00191 6.25194 5.71617 6.26106 5.4269 6.26106C5.13763 6.26106 4.85838 6.25194 4.58737 6.23432C4.42712 5.99312 4.2763 5.74645 4.13431 5.49432C3.99233 5.24218 3.86154 4.98579 3.73841 4.72333H3.73782C3.85918 4.46147 3.99174 4.20508 4.13196 3.95233C4.27158 3.7002 4.423 3.45474 4.58148 3.21415C4.85779 3.19289 5.1394 3.18195 5.4269 3.18195C5.71441 3.18195 5.99779 3.19349 6.27233 3.21415C6.42845 3.45353 6.5781 3.69837 6.71949 3.94869C6.86148 4.199 6.99344 4.45539 7.11893 4.71543ZM3.78907 3.74819C3.69893 3.9092 3.61056 4.07445 3.52749 4.24153C3.41143 3.95902 3.31422 3.68197 3.23292 3.41404C3.49803 3.35328 3.77965 3.30407 4.07245 3.26579C3.97524 3.42376 3.8798 3.58476 3.78907 3.74819ZM3.52808 5.20208C3.61292 5.36916 3.69952 5.53442 3.79143 5.69785C3.8851 5.8631 3.98113 6.02836 4.08247 6.18936C3.79555 6.15716 3.50982 6.10977 3.2282 6.04659C3.30892 5.77379 3.41025 5.49128 3.52808 5.20208ZM5.44104 7.34555C5.2531 7.13715 5.06575 6.90568 4.88312 6.65658C5.05986 6.66447 5.24191 6.66812 5.42631 6.66812C5.61602 6.66812 5.8016 6.66447 5.986 6.65475C5.81692 6.89535 5.63487 7.12561 5.44104 7.34555ZM7.84771 7.91604C7.83062 8.14752 7.72045 8.36381 7.54371 8.50963C7.2509 8.684 6.62699 8.45677 5.95301 7.86015C5.87583 7.79149 5.79806 7.71737 5.71912 7.64204C6.00073 7.32125 6.26055 6.98162 6.4962 6.62498C6.91744 6.58914 7.33751 6.52231 7.75168 6.4257C7.76994 6.50347 7.78644 6.58124 7.80175 6.65718C7.89248 7.06729 7.90662 7.4944 7.84771 7.91604ZM8.00796 3.51854C8.10399 3.54709 8.19589 3.57747 8.28427 3.60785C9.14207 3.91163 9.74417 4.36365 9.74417 4.70935C9.74417 5.08179 9.10141 5.56176 8.18293 5.87465C8.13168 5.89166 8.07983 5.90867 8.02681 5.92386C7.89779 5.51011 7.73989 5.10548 7.55726 4.71239C7.73341 4.32538 7.88306 3.92682 8.00796 3.51854ZM5.9212 1.61263C6.60638 0.997779 7.24501 0.756578 7.53664 0.929125C7.84771 1.11321 7.96731 1.85747 7.7723 2.83503C7.75934 2.89944 7.74637 2.96201 7.72988 3.0252C7.32101 2.93042 6.90684 2.86177 6.4909 2.8241C6.25171 2.47111 5.99013 2.13331 5.70675 1.81616C5.77803 1.74568 5.84755 1.67885 5.9212 1.61263ZM5.42985 2.10657C5.62309 2.32286 5.80513 2.5507 5.97481 2.78582C5.61013 2.76881 5.24368 2.76881 4.87958 2.78582C5.05986 2.54098 5.24603 2.31314 5.42985 2.10657ZM3.29419 0.942491C3.60408 0.756578 4.29044 1.02208 5.01391 1.6831C5.05986 1.72503 5.10582 1.77059 5.15354 1.81616C4.8678 2.13331 4.60504 2.47111 4.36349 2.8241C3.94755 2.86238 3.53515 2.9286 3.12628 3.02156C3.10213 2.92495 3.0821 2.82592 3.06207 2.72689C2.88886 1.80826 3.00315 1.11504 3.29419 0.942491ZM2.53006 3.61939C2.63493 3.58112 2.74157 3.54709 2.84879 3.51489C2.97428 3.92682 3.1251 4.33145 3.29949 4.72211C3.12275 5.11885 2.97016 5.52895 2.8429 5.94634L2.84231 5.94695C2.76513 5.92447 2.68972 5.89956 2.61431 5.87283C2.22253 5.74585 1.77655 5.54414 1.45428 5.28046C1.2687 5.1474 1.14321 4.94265 1.10845 4.71239C1.10904 4.36547 1.69053 3.92074 2.53006 3.61939Z" fill="#26C6DA"/>
</svg>
