<svg width="100" height="100" viewBox="0 0 100 100" fill="none" xmlns="http://www.w3.org/2000/svg">
<path d="M0 50V100H50H100V50V0H50H0V50Z" fill="#007ACC"/>
<path d="M22.1132 50.3318L22.0815 54.427L28.5894 54.427H35.0974V72.9191V91.4111H39.7005H44.3037V72.9191L44.3037 54.427H50.8116H57.3196V50.4111C57.3196 48.1889 57.272 46.3318 57.2085 46.2841C57.1608 46.2207 49.2402 46.1889 39.637 46.2048L22.1609 46.2524L22.1132 50.3318Z" fill="white"/>
<path d="M80.6906 46.1362C83.2302 46.7712 85.1668 47.8981 86.9445 49.7394C87.8652 50.7235 89.2302 52.5172 89.3414 52.9458C89.3731 53.0727 85.0239 55.9934 82.389 57.6283C82.2937 57.6918 81.9128 57.2791 81.4842 56.6442C80.1985 54.7711 78.8493 53.9616 76.7858 53.8188C73.754 53.6124 71.8017 55.1997 71.8175 57.8505C71.8175 58.6283 71.9287 59.0886 72.2461 59.7235C72.9128 61.1045 74.1509 61.9299 78.0398 63.6124C85.1985 66.6918 88.262 68.7235 90.1668 71.6124C92.2937 74.8346 92.7699 79.9775 91.3255 83.8029C89.7382 87.9616 85.8017 90.787 80.262 91.7235C78.5477 92.0251 74.4842 91.9775 72.6429 91.6442C68.6271 90.9299 64.8175 88.9458 62.4683 86.3426C61.5477 85.3267 59.7541 82.6759 59.8652 82.4854C59.9128 82.4219 60.3255 82.168 60.7858 81.8981C61.2302 81.6442 62.9128 80.6759 64.5001 79.7553L67.3731 78.0886L67.9763 78.9775C68.8175 80.2632 70.6588 82.0251 71.7699 82.6124C74.9604 84.295 79.3414 84.0569 81.5001 82.1204C82.4207 81.2791 82.8017 80.4061 82.8017 79.1204C82.8017 77.9616 82.6588 77.4537 82.0556 76.5807C81.2779 75.4696 79.6906 74.5331 75.1826 72.5807C70.0239 70.3584 67.8017 68.9775 65.7699 66.787C64.5953 65.5172 63.4842 63.4854 63.0239 61.787C62.6429 60.3743 62.5477 56.8346 62.8493 55.4061C63.9128 50.4219 67.6747 46.9458 73.1033 45.914C74.8652 45.5807 78.9604 45.7077 80.6906 46.1362Z" fill="white"/>
</svg>
